<svg width="211" height="40" viewBox="0 0 211 40" fill="none" xmlns="http://www.w3.org/2000/svg">
<path fill-rule="evenodd" clip-rule="evenodd" d="M12.5616 10.0064C12.8439 10.2888 13.303 10.2888 13.5871 10.0064L19.7958 3.79771C19.9084 3.68511 20.092 3.68511 20.2046 3.79771L26.4133 10.0064C26.6957 10.2888 27.1547 10.2888 27.4388 10.0064L28.9668 8.47847C29.2491 8.1961 29.2491 7.73703 28.9668 7.45293L22.5831 1.06928C21.1574 -0.356428 18.8447 -0.356428 17.4173 1.06928L11.0337 7.45293C10.7513 7.7353 10.7513 8.19437 11.0337 8.47847L12.5616 10.0064ZM61.3752 28.6064H69.3041C69.7459 28.6064 70.1027 28.9633 70.1027 29.405V31.1997C70.1027 31.6415 69.7459 31.9983 69.3041 31.9983H52.5421C52.1003 31.9983 51.7435 31.6415 51.7435 31.1997V29.405C51.7435 28.9633 52.1003 28.6064 52.5421 28.6064H55.7867C56.2285 28.6064 56.5853 28.2496 56.5853 27.8078V8.79719C56.5853 8.35544 56.9422 7.99858 57.3839 7.99858H59.778C60.2198 7.99858 60.5766 8.35544 60.5766 8.79719V27.8078C60.5766 28.2496 60.9335 28.6064 61.3752 28.6064ZM149.705 14.0982C148.567 13.1818 144.434 12.8977 142.713 15.1619C142.566 15.3559 142.268 15.323 142.168 15.1012C141.283 13.1316 138.71 13.4399 138.71 13.4399C136.179 13.4399 135.129 14.5642 134.843 14.883C134.8 14.9315 134.719 14.902 134.719 14.8379C134.719 14.3979 134.362 14.0393 133.92 14.0393H131.524C131.084 14.0393 130.726 14.3962 130.726 14.8379V31.2015C130.726 31.6415 131.083 32.0001 131.524 32.0001H133.92C134.36 32.0001 134.719 31.6433 134.719 31.2015V21.4225C134.719 17.8522 135.003 17.5559 135.438 17.2112C136.046 16.7296 137.917 16.695 138.351 17.2112L138.362 17.2234C138.575 17.4747 138.83 17.7759 138.83 21.4225V31.2015C138.83 31.6415 139.186 32.0001 139.628 32.0001H142.024C142.464 32.0001 142.823 31.6433 142.823 31.2015V21.4225C142.823 17.8522 143.107 17.5559 143.541 17.2112C144.15 16.7296 146.02 16.695 146.455 17.2112L146.466 17.2234C146.678 17.4747 146.933 17.7759 146.933 21.4225V31.2015C146.933 31.6415 147.29 32.0001 147.732 32.0001H150.128C150.568 32.0001 150.926 31.6433 150.926 31.2015C150.926 31.2015 151.004 18.3719 150.727 16.274C150.594 15.2623 150.254 14.5382 149.71 14.0982H149.705ZM86.0471 14.2386C83.8627 13.2771 78.0524 13.0675 75.3916 14.2386C74.1807 14.7704 73.3353 15.7093 72.8572 17.0519C71.7797 20.0731 71.9997 26.5797 72.8572 28.9859C73.3353 30.3302 74.1807 31.2674 75.3916 31.7992C78.1997 33.0327 84.0307 32.6862 86.0471 31.7992C87.258 31.2674 88.1034 30.3302 88.5816 28.9859C89.6816 25.9006 89.4217 19.4096 88.5816 17.0519C88.1034 15.7093 87.258 14.7704 86.0471 14.2386ZM84.7306 26.869C84.4777 27.7334 84.0446 28.3398 83.4331 28.6845C82.333 29.3064 79.3205 29.4554 77.8653 28.6845C77.2122 28.3398 76.7601 27.7334 76.5089 26.869C75.9632 25.0016 76.0464 20.7487 76.5089 19.1653C76.7618 18.3009 77.214 17.6963 77.8653 17.3498C79.2183 16.6327 82.2308 16.6708 83.4331 17.3498C84.0446 17.6963 84.4777 18.3009 84.7306 19.1653C85.3005 21.1125 85.1689 25.3688 84.7306 26.869ZM105.444 14.2386C103.26 13.2771 97.4493 13.0675 94.7884 14.2386C93.5775 14.7704 92.7322 15.7093 92.254 17.0519C91.1765 20.0731 91.3965 26.5797 92.254 28.9859C92.7322 30.3302 93.5775 31.2674 94.7884 31.7992C97.2882 32.8975 102.27 32.6949 104.309 32.1803C104.512 32.1301 104.706 32.2808 104.706 32.4887V36.2877C104.706 36.4644 104.562 36.6065 104.387 36.6065H95.5264C95.0864 36.6065 94.7278 36.9633 94.7278 37.4051V39.2015C94.7278 39.6432 95.0847 40.0001 95.5264 40.0001H104.706C107.92 40.0001 108.697 39.3487 108.697 36.6082V23.0215C108.697 20.3866 108.458 18.3979 107.978 17.0553C107.5 15.7128 106.655 14.7739 105.444 14.242V14.2386ZM104.127 26.869C103.875 27.7334 103.441 28.3398 102.83 28.6845C101.73 29.3064 98.7174 29.4554 97.2622 28.6845C96.6091 28.3398 96.157 27.7334 95.9058 26.869C95.3601 25.0016 95.4433 20.7487 95.9058 19.1653C96.1587 18.3009 96.6109 17.6963 97.2622 17.3498C98.6152 16.6327 101.628 16.6708 102.83 17.3498C103.441 17.6963 103.875 18.3009 104.127 19.1653C104.697 21.1125 104.566 25.3688 104.127 26.869ZM114.186 14.2386C116.846 13.0675 122.657 13.2771 124.841 14.2386C126.052 14.7704 126.897 15.7093 127.376 17.0519C128.216 19.4096 128.476 25.9006 127.376 28.9859C126.897 30.3302 126.052 31.2674 124.841 31.7992C122.825 32.6862 116.994 33.0327 114.186 31.7992C112.975 31.2674 112.129 30.3302 111.651 28.9859C110.794 26.5797 110.574 20.0731 111.651 17.0519C112.129 15.7093 112.975 14.7704 114.186 14.2386ZM122.227 28.6845C122.839 28.3398 123.272 27.7334 123.525 26.869C123.963 25.3688 124.094 21.1125 123.525 19.1653C123.272 18.3009 122.839 17.6963 122.227 17.3498C121.025 16.6708 118.012 16.6327 116.659 17.3498C116.008 17.6963 115.556 18.3009 115.303 19.1653C114.84 20.7487 114.757 25.0016 115.303 26.869C115.554 27.7334 116.006 28.3398 116.659 28.6845C118.114 29.4554 121.127 29.3064 122.227 28.6845ZM166.129 14.0393C167.219 14.0393 168.044 14.1329 168.603 14.3182L168.607 14.3199C169.726 14.6924 170.122 15.5949 170.122 17.4329V31.2414C170.122 31.6831 169.764 32.04 169.324 32.04H166.592C166.337 32.04 166.131 31.8338 166.131 31.5792C166.131 31.5099 166.05 31.4752 165.996 31.5203C165.594 31.8667 164.744 32.5302 161.345 32.5943L161.317 32.5955C160.872 32.6156 155.622 32.8527 154.256 29.9664C153.243 27.8252 153.404 23.2068 154.256 21.5247C154.72 20.6066 155.545 19.9622 156.73 19.5897C158.289 19.0995 162.105 18.6352 164.593 19.5897C164.971 19.7335 165.314 19.924 165.618 20.1579C165.828 20.3173 166.129 20.1666 166.129 19.9033V17.7517C166.129 17.5767 165.987 17.4329 165.811 17.4329H156.95C156.508 17.4329 156.151 17.0744 156.151 16.6343V14.8379C156.151 14.3962 156.51 14.0393 156.95 14.0393H166.129ZM164.354 28.9045C165.085 28.7052 165.563 28.3657 165.79 27.8876C166.173 27.0768 166.337 24.6152 165.75 23.5966C165.497 23.1566 164.998 22.8517 164.253 22.6785C162.741 22.3268 160.413 22.3424 159.224 22.6785C158.611 22.8517 158.18 23.1635 157.927 23.6156C157.452 24.4645 157.386 26.7633 157.927 27.846C158.18 28.3518 158.611 28.7052 159.224 28.9045C160.382 29.2804 163.035 29.2648 164.354 28.9045ZM185.325 13.4399C185.325 13.4399 183.075 13.5023 182.173 14.0982C182.024 14.1952 181.888 14.3113 181.762 14.4429C181.738 14.4689 181.694 14.4533 181.694 14.4169C181.694 14.2091 181.525 14.0393 181.317 14.0393H173.592C173.152 14.0393 172.794 14.3961 172.794 14.8379V16.6343C172.794 17.0743 173.151 17.4329 173.592 17.4329H177.384C177.561 17.4329 177.703 17.5767 177.703 17.7517V28.2877C177.703 28.4644 177.559 28.6065 177.384 28.6065H173.592C173.152 28.6065 172.794 28.9633 172.794 29.4051V31.2015C172.794 31.6415 173.151 32.0001 173.592 32.0001H185.805C186.245 32.0001 186.604 31.6432 186.604 31.2015V29.4051C186.604 28.9651 186.247 28.6065 185.805 28.6065H182.013C181.836 28.6065 181.694 28.4627 181.694 28.2877V21.4225C181.694 18.7495 182.244 17.7014 183.111 17.232C183.995 16.7538 186.096 16.6482 186.843 17.2528C187.458 17.7499 187.697 18.7339 187.751 20.6447C187.763 21.0778 188.116 21.4242 188.547 21.4242H190.945C191.394 21.4242 191.754 21.0535 191.744 20.6048C191.621 15.1947 190.472 13.4416 185.327 13.4416L185.325 13.4399ZM210.799 30.7684L205.815 23.004C205.757 22.9122 205.748 22.7979 205.793 22.6991L209.235 15.167C209.476 14.6386 209.09 14.0375 208.509 14.0375H205.835C205.523 14.0375 205.239 14.2194 205.109 14.5035L202.16 20.9547C202.108 21.069 201.996 21.1418 201.869 21.1418H198.536C198.36 21.1418 198.217 20.998 198.217 20.823V8.84914C198.217 8.40913 197.861 8.05054 197.419 8.05054H191.64C191.2 8.05054 190.841 8.4074 190.841 8.84914V10.6456C190.841 11.0856 191.198 11.4442 191.64 11.4442H193.906C194.082 11.4442 194.224 11.588 194.224 11.7629V31.1997C194.224 31.6397 194.581 31.9983 195.023 31.9983H197.419C197.859 31.9983 198.217 31.6415 198.217 31.1997V24.8542C198.217 24.6775 198.361 24.5354 198.536 24.5354H202.191C202.301 24.5354 202.401 24.5909 202.46 24.6827L206.921 31.6328C207.068 31.8615 207.321 32 207.593 32H210.127C210.758 32 211.139 31.3019 210.799 30.7701V30.7684ZM24.7624 13.6859L26.2955 15.219C26.5779 15.5014 26.5779 15.957 26.2955 16.2394L22.5225 20.0124L26.2955 23.7854C26.5779 24.0678 26.5779 24.5234 26.2955 24.8057L24.7624 26.3389C24.48 26.6212 24.0244 26.6212 23.742 26.3389L19.969 22.5658L16.196 26.3389C15.9136 26.6212 15.458 26.6212 15.1757 26.3389L13.6425 24.8057C13.3602 24.5234 13.3602 24.0678 13.6425 23.7854L17.4156 20.0124L13.6425 16.2394C13.3602 15.957 13.3602 15.5014 13.6425 15.219L15.1757 13.6859C15.458 13.4035 15.9136 13.4035 16.196 13.6859L19.969 17.4589L23.742 13.6859C24.0244 13.4035 24.48 13.4035 24.7624 13.6859ZM32.544 11.0284C32.2617 10.7461 31.8043 10.7461 31.5237 11.0284L29.9906 12.5615C29.7082 12.8439 29.7082 13.3013 29.9906 13.5819L36.201 19.794C36.3136 19.9066 36.3136 20.0903 36.201 20.2029L29.9906 26.4133C29.7082 26.6957 29.7082 27.153 29.9906 27.4336L31.5237 28.9667C31.8061 29.2491 32.2634 29.2491 32.544 28.9667L38.9329 22.5779C40.3586 21.1522 40.3586 18.843 38.9329 17.4173L32.544 11.0284ZM26.4168 29.9872C26.6992 29.7048 27.1548 29.7048 27.4372 29.9872H27.4354L28.9685 31.5203C29.2509 31.8027 29.2509 32.2583 28.9685 32.5406L22.5797 38.9295C21.154 40.3552 18.8448 40.3552 17.4191 38.9295L11.0302 32.5406C10.7479 32.2583 10.7479 31.8027 11.0302 31.5203L12.5633 29.9872C12.8457 29.7048 13.3013 29.7048 13.5837 29.9872L19.7958 36.1993C19.9084 36.3119 20.0921 36.3119 20.2047 36.1993L26.4168 29.9872ZM10.0099 12.5598C10.2922 12.8422 10.2922 13.2995 10.0099 13.5819V13.5836L3.79944 19.794C3.68684 19.9066 3.68684 20.0903 3.79944 20.2029L10.0099 26.4133C10.2922 26.6957 10.2922 27.153 10.0099 27.4354L8.47847 28.9667C8.1961 29.2491 7.73876 29.2491 7.45639 28.9667L1.06928 22.5796C-0.356427 21.1539 -0.356427 18.843 1.06928 17.4173L7.45639 11.0284C7.73876 10.7461 8.1961 10.7461 8.47847 11.0284L10.0099 12.5598Z" fill="white"/>
</svg>
